<svg id="visual" viewBox="0 0 250 250" xmlns="http://www.w3.org/2000/svg" xmlns:xlink="http://www.w3.org/1999/xlink" version="1.1" preserveAspectRatio="none"><path d="M210 0L203.7 14.3C197.3 28.7 184.7 57.3 180.3 85.8C176 114.3 180 142.7 187.8 171.2C195.7 199.7 207.3 228.3 206.2 257C205 285.7 191 314.3 185.5 343C180 371.7 183 400.3 186.8 428.8C190.7 457.3 195.3 485.7 203.5 514.2C211.7 542.7 223.3 571.3 229.2 585.7L235 600L0 600L0 585.7C0 571.3 0 542.7 0 514.2C0 485.7 0 457.3 0 428.8C0 400.3 0 371.7 0 343C0 314.3 0 285.7 0 257C0 228.3 0 199.7 0 171.2C0 142.7 0 114.3 0 85.8C0 57.3 0 28.7 0 14.3L0 0Z" fill="#0066FF" stroke-linecap="round" stroke-linejoin="miter"></path></svg>